<svg version="1.1" viewBox="0.0 0.0 576.0 576.0" fill="none" stroke="none" stroke-linecap="square" stroke-miterlimit="10" xmlns:xlink="http://www.w3.org/1999/xlink" xmlns="http://www.w3.org/2000/svg"><clipPath id="p.0"><path d="m0 0l576.0 0l0 576.0l-576.0 0l0 -576.0z" clip-rule="nonzero"/></clipPath><g clip-path="url(#p.0)"><path fill="#000000" fill-opacity="0.0" d="m0 0l576.0 0l0 576.0l-576.0 0z" fill-rule="evenodd"/><path fill="#000000" fill-opacity="0.0" d="m18.47244 196.1427l0 0c0 -26.684158 21.631777 -48.315933 48.315926 -48.315933l442.42328 0c12.814178 0 25.103546 5.0904236 34.16452 14.151413c9.060974 9.060989 14.151428 21.350342 14.151428 34.16452l0 193.2579c0 26.684143 -21.631836 48.315918 -48.31595 48.315918l-442.42328 0c-26.68415 0 -48.315926 -21.631775 -48.315926 -48.315918z" fill-rule="evenodd"/><path stroke="#000000" stroke-width="24.0" stroke-linejoin="round" stroke-linecap="butt" d="m18.47244 196.1427l0 0c0 -26.684158 21.631777 -48.315933 48.315926 -48.315933l442.42328 0c12.814178 0 25.103546 5.0904236 34.16452 14.151413c9.060974 9.060989 14.151428 21.350342 14.151428 34.16452l0 193.2579c0 26.684143 -21.631836 48.315918 -48.31595 48.315918l-442.42328 0c-26.68415 0 -48.315926 -21.631775 -48.315926 -48.315918z" fill-rule="evenodd"/><path fill="#000000" d="m61.472443 200.49094l0 0c0 -3.4007568 2.7568512 -6.157608 6.1576004 -6.157608l46.36196 0c1.6330948 0 3.1993103 0.64875793 4.35408 1.8035278c1.1547775 1.1547699 1.8035202 2.7209778 1.8035202 4.35408l0 24.62967c0 3.4007568 -2.7568512 6.157608 -6.1576004 6.157608l-46.36196 0c-3.4007492 0 -6.1576004 -2.7568512 -6.1576004 -6.157608z" fill-rule="evenodd"/><path stroke="#000000" stroke-width="4.0" stroke-linejoin="round" stroke-linecap="butt" d="m61.472443 200.49094l0 0c0 -3.4007568 2.7568512 -6.157608 6.1576004 -6.157608l46.36196 0c1.6330948 0 3.1993103 0.64875793 4.35408 1.8035278c1.1547775 1.1547699 1.8035202 2.7209778 1.8035202 4.35408l0 24.62967c0 3.4007568 -2.7568512 6.157608 -6.1576004 6.157608l-46.36196 0c-3.4007492 0 -6.1576004 -2.7568512 -6.1576004 -6.157608z" fill-rule="evenodd"/><path fill="#000000" d="m148.52231 200.49094l0 0c0 -3.4007568 2.7568512 -6.157608 6.157608 -6.157608l24.62967 0l0 0c1.6331024 0 3.1993103 0.64875793 4.35408 1.8035278c1.1547852 1.1547699 1.8035278 2.7209778 1.8035278 4.35408l0 24.62967c0 3.4007568 -2.7568512 6.157608 -6.157608 6.157608l-24.62967 0c-3.4007568 0 -6.157608 -2.7568512 -6.157608 -6.157608z" fill-rule="evenodd"/><path stroke="#000000" stroke-width="4.0" stroke-linejoin="round" stroke-linecap="butt" d="m148.52231 200.49094l0 0c0 -3.4007568 2.7568512 -6.157608 6.157608 -6.157608l24.62967 0l0 0c1.6331024 0 3.1993103 0.64875793 4.35408 1.8035278c1.1547852 1.1547699 1.8035278 2.7209778 1.8035278 4.35408l0 24.62967c0 3.4007568 -2.7568512 6.157608 -6.157608 6.157608l-24.62967 0c-3.4007568 0 -6.157608 -2.7568512 -6.157608 -6.157608z" fill-rule="evenodd"/><path fill="#000000" d="m61.44357 254.72191l0 0c0 -3.4007568 2.756855 -6.157608 6.157604 -6.157608l64.85015 0c1.6330872 0 3.1993103 0.6487427 4.35408 1.8035278c1.1547699 1.1547699 1.8035126 2.7209778 1.8035126 4.35408l0 24.629684c0 3.4007263 -2.7568512 6.157593 -6.157593 6.157593l-64.85015 0c-3.4007492 0 -6.157604 -2.7568665 -6.157604 -6.157593z" fill-rule="evenodd"/><path stroke="#000000" stroke-width="4.0" stroke-linejoin="round" stroke-linecap="butt" d="m61.44357 254.72191l0 0c0 -3.4007568 2.756855 -6.157608 6.157604 -6.157608l64.85015 0c1.6330872 0 3.1993103 0.6487427 4.35408 1.8035278c1.1547699 1.1547699 1.8035126 2.7209778 1.8035126 4.35408l0 24.629684c0 3.4007263 -2.7568512 6.157593 -6.157593 6.157593l-64.85015 0c-3.4007492 0 -6.157604 -2.7568665 -6.157604 -6.157593z" fill-rule="evenodd"/><path fill="#000000" d="m61.44357 308.95288l0 0c0 -3.4007568 2.756855 -6.157593 6.157604 -6.157593l93.228096 0c1.6331024 0 3.1993103 0.6487427 4.35408 1.8034973c1.1547852 1.1547852 1.8035278 2.7210083 1.8035278 4.3540955l0 24.62967c0 3.4007568 -2.7568512 6.157593 -6.157608 6.157593l-93.228096 0c-3.4007492 0 -6.157604 -2.756836 -6.157604 -6.157593z" fill-rule="evenodd"/><path stroke="#000000" stroke-width="4.0" stroke-linejoin="round" stroke-linecap="butt" d="m61.44357 308.95288l0 0c0 -3.4007568 2.756855 -6.157593 6.157604 -6.157593l93.228096 0c1.6331024 0 3.1993103 0.6487427 4.35408 1.8034973c1.1547852 1.1547852 1.8035278 2.7210083 1.8035278 4.3540955l0 24.62967c0 3.4007568 -2.7568512 6.157593 -6.157608 6.157593l-93.228096 0c-3.4007492 0 -6.157604 -2.756836 -6.157604 -6.157593z" fill-rule="evenodd"/><path fill="#000000" d="m192.15224 363.18384l0 0c0 -3.4007263 2.7568512 -6.157593 6.157593 -6.157593l179.36983 0c1.6331177 0 3.1993103 0.6487427 4.3540955 1.8035278c1.1547852 1.1547546 1.8035278 2.7209778 1.8035278 4.354065l0 24.6297c0 3.4007263 -2.7568665 6.157593 -6.1576233 6.157593l-179.36983 0l0 0c-3.4007416 0 -6.157593 -2.7568665 -6.157593 -6.157593z" fill-rule="evenodd"/><path stroke="#000000" stroke-width="4.0" stroke-linejoin="round" stroke-linecap="butt" d="m192.15224 363.18384l0 0c0 -3.4007263 2.7568512 -6.157593 6.157593 -6.157593l179.36983 0c1.6331177 0 3.1993103 0.6487427 4.3540955 1.8035278c1.1547852 1.1547546 1.8035278 2.7209778 1.8035278 4.354065l0 24.6297c0 3.4007263 -2.7568665 6.157593 -6.1576233 6.157593l-179.36983 0l0 0c-3.4007416 0 -6.157593 -2.7568665 -6.157593 -6.157593z" fill-rule="evenodd"/><path fill="#000000" d="m213.84776 200.49094l0 0c0 -3.4007568 2.7568665 -6.157608 6.157608 -6.157608l24.62967 0l0 0c1.6331024 0 3.1993103 0.64875793 4.3540955 1.8035278c1.1547699 1.1547699 1.8035126 2.7209778 1.8035126 4.35408l0 24.62967c0 3.4007568 -2.7568512 6.157608 -6.157608 6.157608l-24.62967 0c-3.4007416 0 -6.157608 -2.7568512 -6.157608 -6.157608z" fill-rule="evenodd"/><path stroke="#000000" stroke-width="4.0" stroke-linejoin="round" stroke-linecap="butt" d="m213.84776 200.49094l0 0c0 -3.4007568 2.7568665 -6.157608 6.157608 -6.157608l24.62967 0l0 0c1.6331024 0 3.1993103 0.64875793 4.3540955 1.8035278c1.1547699 1.1547699 1.8035126 2.7209778 1.8035126 4.35408l0 24.62967c0 3.4007568 -2.7568512 6.157608 -6.157608 6.157608l-24.62967 0c-3.4007416 0 -6.157608 -2.7568512 -6.157608 -6.157608z" fill-rule="evenodd"/><path fill="#000000" d="m279.17322 200.49094l0 0c0 -3.4007568 2.7568665 -6.157608 6.1576233 -6.157608l24.62967 0l0 0c1.6330872 0 3.1993103 0.64875793 4.354065 1.8035278c1.1547852 1.1547699 1.8035278 2.7209778 1.8035278 4.35408l0 24.62967c0 3.4007568 -2.756836 6.157608 -6.157593 6.157608l-24.62967 0c-3.4007568 0 -6.1576233 -2.7568512 -6.1576233 -6.157608z" fill-rule="evenodd"/><path stroke="#000000" stroke-width="4.0" stroke-linejoin="round" stroke-linecap="butt" d="m279.17322 200.49094l0 0c0 -3.4007568 2.7568665 -6.157608 6.1576233 -6.157608l24.62967 0l0 0c1.6330872 0 3.1993103 0.64875793 4.354065 1.8035278c1.1547852 1.1547699 1.8035278 2.7209778 1.8035278 4.35408l0 24.62967c0 3.4007568 -2.756836 6.157608 -6.157593 6.157608l-24.62967 0c-3.4007568 0 -6.1576233 -2.7568512 -6.1576233 -6.157608z" fill-rule="evenodd"/><path fill="#000000" d="m344.4987 200.49094l0 0c0 -3.4007568 2.7568665 -6.157608 6.157593 -6.157608l24.6297 0l0 0c1.6330872 0 3.1992798 0.64875793 4.354065 1.8035278c1.1547852 1.1547699 1.8035278 2.7209778 1.8035278 4.35408l0 24.62967c0 3.4007568 -2.7568665 6.157608 -6.157593 6.157608l-24.6297 0c-3.4007263 0 -6.157593 -2.7568512 -6.157593 -6.157608z" fill-rule="evenodd"/><path stroke="#000000" stroke-width="4.0" stroke-linejoin="round" stroke-linecap="butt" d="m344.4987 200.49094l0 0c0 -3.4007568 2.7568665 -6.157608 6.157593 -6.157608l24.6297 0l0 0c1.6330872 0 3.1992798 0.64875793 4.354065 1.8035278c1.1547852 1.1547699 1.8035278 2.7209778 1.8035278 4.35408l0 24.62967c0 3.4007568 -2.7568665 6.157608 -6.157593 6.157608l-24.6297 0c-3.4007263 0 -6.157593 -2.7568512 -6.157593 -6.157608z" fill-rule="evenodd"/><path fill="#000000" d="m409.82416 200.49094l0 0c0 -3.4007568 2.756836 -6.157608 6.157593 -6.157608l24.62967 0l0 0c1.6331177 0 3.1993103 0.64875793 4.3540955 1.8035278c1.1547546 1.1547699 1.8035278 2.7209778 1.8035278 4.35408l0 24.62967c0 3.4007568 -2.7568665 6.157608 -6.1576233 6.157608l-24.62967 0c-3.4007568 0 -6.157593 -2.7568512 -6.157593 -6.157608z" fill-rule="evenodd"/><path stroke="#000000" stroke-width="4.0" stroke-linejoin="round" stroke-linecap="butt" d="m409.82416 200.49094l0 0c0 -3.4007568 2.756836 -6.157608 6.157593 -6.157608l24.62967 0l0 0c1.6331177 0 3.1993103 0.64875793 4.3540955 1.8035278c1.1547546 1.1547699 1.8035278 2.7209778 1.8035278 4.35408l0 24.62967c0 3.4007568 -2.7568665 6.157608 -6.1576233 6.157608l-24.62967 0c-3.4007568 0 -6.157593 -2.7568512 -6.157593 -6.157608z" fill-rule="evenodd"/><path fill="#000000" d="m475.1496 200.49094l0 0c0 -3.4007568 2.7568665 -6.157608 6.1576233 -6.157608l24.62967 0l0 0c1.6330872 0 3.1993103 0.64875793 4.354065 1.8035278c1.1547852 1.1547699 1.8035278 2.7209778 1.8035278 4.35408l0 24.62967c0 3.4007568 -2.756836 6.157608 -6.157593 6.157608l-24.62967 0c-3.4007568 0 -6.1576233 -2.7568512 -6.1576233 -6.157608z" fill-rule="evenodd"/><path stroke="#000000" stroke-width="4.0" stroke-linejoin="round" stroke-linecap="butt" d="m475.1496 200.49094l0 0c0 -3.4007568 2.7568665 -6.157608 6.1576233 -6.157608l24.62967 0l0 0c1.6330872 0 3.1993103 0.64875793 4.354065 1.8035278c1.1547852 1.1547699 1.8035278 2.7209778 1.8035278 4.35408l0 24.62967c0 3.4007568 -2.756836 6.157608 -6.157593 6.157608l-24.62967 0c-3.4007568 0 -6.1576233 -2.7568512 -6.1576233 -6.157608z" fill-rule="evenodd"/><path fill="#000000" d="m166.99213 254.72191l0 0c0 -3.4007568 2.7568512 -6.157608 6.157608 -6.157608l24.62967 0l0 0c1.6331024 0 3.1993103 0.6487427 4.35408 1.8035278c1.1547852 1.1547699 1.8035278 2.7209778 1.8035278 4.35408l0 24.629684c0 3.4007263 -2.7568512 6.157593 -6.157608 6.157593l-24.62967 0c-3.4007568 0 -6.157608 -2.7568665 -6.157608 -6.157593z" fill-rule="evenodd"/><path stroke="#000000" stroke-width="4.0" stroke-linejoin="round" stroke-linecap="butt" d="m166.99213 254.72191l0 0c0 -3.4007568 2.7568512 -6.157608 6.157608 -6.157608l24.62967 0l0 0c1.6331024 0 3.1993103 0.6487427 4.35408 1.8035278c1.1547852 1.1547699 1.8035278 2.7209778 1.8035278 4.35408l0 24.629684c0 3.4007263 -2.7568512 6.157593 -6.157608 6.157593l-24.62967 0c-3.4007568 0 -6.157608 -2.7568665 -6.157608 -6.157593z" fill-rule="evenodd"/><path fill="#000000" d="m232.31758 254.72191l0 0c0 -3.4007568 2.7568512 -6.157608 6.157608 -6.157608l24.62967 0l0 0c1.6331177 0 3.1993103 0.6487427 4.3540955 1.8035278c1.1547546 1.1547699 1.8035278 2.7209778 1.8035278 4.35408l0 24.629684c0 3.4007263 -2.7568665 6.157593 -6.1576233 6.157593l-24.62967 0c-3.4007568 0 -6.157608 -2.7568665 -6.157608 -6.157593z" fill-rule="evenodd"/><path stroke="#000000" stroke-width="4.0" stroke-linejoin="round" stroke-linecap="butt" d="m232.31758 254.72191l0 0c0 -3.4007568 2.7568512 -6.157608 6.157608 -6.157608l24.62967 0l0 0c1.6331177 0 3.1993103 0.6487427 4.3540955 1.8035278c1.1547546 1.1547699 1.8035278 2.7209778 1.8035278 4.35408l0 24.629684c0 3.4007263 -2.7568665 6.157593 -6.1576233 6.157593l-24.62967 0c-3.4007568 0 -6.157608 -2.7568665 -6.157608 -6.157593z" fill-rule="evenodd"/><path fill="#000000" d="m297.64304 254.72191l0 0c0 -3.4007568 2.7568665 -6.157608 6.1576233 -6.157608l24.62967 0l0 0c1.6330872 0 3.1993103 0.6487427 4.354065 1.8035278c1.1547852 1.1547699 1.8035278 2.7209778 1.8035278 4.35408l0 24.629684c0 3.4007263 -2.756836 6.157593 -6.157593 6.157593l-24.62967 0c-3.4007568 0 -6.1576233 -2.7568665 -6.1576233 -6.157593z" fill-rule="evenodd"/><path stroke="#000000" stroke-width="4.0" stroke-linejoin="round" stroke-linecap="butt" d="m297.64304 254.72191l0 0c0 -3.4007568 2.7568665 -6.157608 6.1576233 -6.157608l24.62967 0l0 0c1.6330872 0 3.1993103 0.6487427 4.354065 1.8035278c1.1547852 1.1547699 1.8035278 2.7209778 1.8035278 4.35408l0 24.629684c0 3.4007263 -2.756836 6.157593 -6.157593 6.157593l-24.62967 0c-3.4007568 0 -6.1576233 -2.7568665 -6.1576233 -6.157593z" fill-rule="evenodd"/><path fill="#000000" d="m362.9685 254.72191l0 0c0 -3.4007568 2.756836 -6.157608 6.157593 -6.157608l24.62967 0l0 0c1.6331177 0 3.1993103 0.6487427 4.3540955 1.8035278c1.1547852 1.1547699 1.8035278 2.7209778 1.8035278 4.35408l0 24.629684c0 3.4007263 -2.7568665 6.157593 -6.1576233 6.157593l-24.62967 0c-3.4007568 0 -6.157593 -2.7568665 -6.157593 -6.157593z" fill-rule="evenodd"/><path stroke="#000000" stroke-width="4.0" stroke-linejoin="round" stroke-linecap="butt" d="m362.9685 254.72191l0 0c0 -3.4007568 2.756836 -6.157608 6.157593 -6.157608l24.62967 0l0 0c1.6331177 0 3.1993103 0.6487427 4.3540955 1.8035278c1.1547852 1.1547699 1.8035278 2.7209778 1.8035278 4.35408l0 24.629684c0 3.4007263 -2.7568665 6.157593 -6.1576233 6.157593l-24.62967 0c-3.4007568 0 -6.157593 -2.7568665 -6.157593 -6.157593z" fill-rule="evenodd"/><path fill="#000000" d="m428.29398 254.72191l0 0c0 -3.4007568 2.756836 -6.157608 6.157593 -6.157608l71.49582 0c1.6330872 0 3.1993103 0.6487427 4.354065 1.8035278c1.1547852 1.1547699 1.8035278 2.7209778 1.8035278 4.35408l0 24.629684c0 3.4007263 -2.756836 6.157593 -6.157593 6.157593l-71.49582 0c-3.4007568 0 -6.157593 -2.7568665 -6.157593 -6.157593z" fill-rule="evenodd"/><path stroke="#000000" stroke-width="4.0" stroke-linejoin="round" stroke-linecap="butt" d="m428.29398 254.72191l0 0c0 -3.4007568 2.756836 -6.157608 6.157593 -6.157608l71.49582 0c1.6330872 0 3.1993103 0.6487427 4.354065 1.8035278c1.1547852 1.1547699 1.8035278 2.7209778 1.8035278 4.35408l0 24.629684c0 3.4007263 -2.756836 6.157593 -6.157593 6.157593l-71.49582 0c-3.4007568 0 -6.157593 -2.7568665 -6.157593 -6.157593z" fill-rule="evenodd"/><path fill="#000000" d="m391.3491 308.95288l0 0c0 -3.4007568 2.756836 -6.157593 6.157593 -6.157593l108.40921 0c1.6330872 0 3.1993103 0.6487427 4.354065 1.8034973c1.1547852 1.1547852 1.8035278 2.7210083 1.8035278 4.3540955l0 24.62967c0 3.4007568 -2.756836 6.157593 -6.157593 6.157593l-108.40921 0c-3.4007568 0 -6.157593 -2.756836 -6.157593 -6.157593z" fill-rule="evenodd"/><path stroke="#000000" stroke-width="4.0" stroke-linejoin="round" stroke-linecap="butt" d="m391.3491 308.95288l0 0c0 -3.4007568 2.756836 -6.157593 6.157593 -6.157593l108.40921 0c1.6330872 0 3.1993103 0.6487427 4.354065 1.8034973c1.1547852 1.1547852 1.8035278 2.7210083 1.8035278 4.3540955l0 24.62967c0 3.4007568 -2.756836 6.157593 -6.157593 6.157593l-108.40921 0c-3.4007568 0 -6.157593 -2.756836 -6.157593 -6.157593z" fill-rule="evenodd"/><path fill="#000000" d="m195.37007 308.95288l0 0c0 -3.4007568 2.7568665 -6.157593 6.157608 -6.157593l24.629684 0l0 0c1.6330872 0 3.199295 0.6487427 4.35408 1.8034973c1.1547699 1.1547852 1.8035126 2.7210083 1.8035126 4.3540955l0 24.62967c0 3.4007568 -2.7568512 6.157593 -6.157593 6.157593l-24.629684 0c-3.4007416 0 -6.157608 -2.756836 -6.157608 -6.157593z" fill-rule="evenodd"/><path stroke="#000000" stroke-width="4.0" stroke-linejoin="round" stroke-linecap="butt" d="m195.37007 308.95288l0 0c0 -3.4007568 2.7568665 -6.157593 6.157608 -6.157593l24.629684 0l0 0c1.6330872 0 3.199295 0.6487427 4.35408 1.8034973c1.1547699 1.1547852 1.8035126 2.7210083 1.8035126 4.3540955l0 24.62967c0 3.4007568 -2.7568512 6.157593 -6.157593 6.157593l-24.629684 0c-3.4007416 0 -6.157608 -2.756836 -6.157608 -6.157593z" fill-rule="evenodd"/><path fill="#000000" d="m260.69815 308.95288l0 0c0 -3.4007568 2.7568665 -6.157593 6.1576233 -6.157593l24.62967 0l0 0c1.6330872 0 3.1993103 0.6487427 4.3540955 1.8034973c1.1547546 1.1547852 1.8034973 2.7210083 1.8034973 4.3540955l0 24.62967c0 3.4007568 -2.756836 6.157593 -6.157593 6.157593l-24.62967 0c-3.4007568 0 -6.1576233 -2.756836 -6.1576233 -6.157593z" fill-rule="evenodd"/><path stroke="#000000" stroke-width="4.0" stroke-linejoin="round" stroke-linecap="butt" d="m260.69815 308.95288l0 0c0 -3.4007568 2.7568665 -6.157593 6.1576233 -6.157593l24.62967 0l0 0c1.6330872 0 3.1993103 0.6487427 4.3540955 1.8034973c1.1547546 1.1547852 1.8034973 2.7210083 1.8034973 4.3540955l0 24.62967c0 3.4007568 -2.756836 6.157593 -6.157593 6.157593l-24.62967 0c-3.4007568 0 -6.1576233 -2.756836 -6.1576233 -6.157593z" fill-rule="evenodd"/><path fill="#000000" d="m326.02362 308.95288l0 0c0 -3.4007568 2.7568665 -6.157593 6.157593 -6.157593l24.6297 0l0 0c1.6330872 0 3.1993103 0.6487427 4.354065 1.8034973c1.1547852 1.1547852 1.8035278 2.7210083 1.8035278 4.3540955l0 24.62967c0 3.4007568 -2.7568665 6.157593 -6.157593 6.157593l-24.6297 0c-3.4007263 0 -6.157593 -2.756836 -6.157593 -6.157593z" fill-rule="evenodd"/><path stroke="#000000" stroke-width="4.0" stroke-linejoin="round" stroke-linecap="butt" d="m326.02362 308.95288l0 0c0 -3.4007568 2.7568665 -6.157593 6.157593 -6.157593l24.6297 0l0 0c1.6330872 0 3.1993103 0.6487427 4.354065 1.8034973c1.1547852 1.1547852 1.8035278 2.7210083 1.8035278 4.3540955l0 24.62967c0 3.4007568 -2.7568665 6.157593 -6.157593 6.157593l-24.6297 0c-3.4007263 0 -6.157593 -2.756836 -6.157593 -6.157593z" fill-rule="evenodd"/><path fill="#000000" d="m63.07874 363.18384l0 0c0 -3.4007263 2.756855 -6.157593 6.157604 -6.157593l24.629677 0l0 0c1.6330948 0 3.1993103 0.6487427 4.35408 1.8035278c1.1547775 1.1547546 1.8035202 2.7209778 1.8035202 4.354065l0 24.6297c0 3.4007263 -2.7568512 6.157593 -6.1576004 6.157593l-24.629677 0c-3.4007492 0 -6.157604 -2.7568665 -6.157604 -6.157593z" fill-rule="evenodd"/><path stroke="#000000" stroke-width="4.0" stroke-linejoin="round" stroke-linecap="butt" d="m63.07874 363.18384l0 0c0 -3.4007263 2.756855 -6.157593 6.157604 -6.157593l24.629677 0l0 0c1.6330948 0 3.1993103 0.6487427 4.35408 1.8035278c1.1547775 1.1547546 1.8035202 2.7209778 1.8035202 4.354065l0 24.6297c0 3.4007263 -2.7568512 6.157593 -6.1576004 6.157593l-24.629677 0c-3.4007492 0 -6.157604 -2.7568665 -6.157604 -6.157593z" fill-rule="evenodd"/><path fill="#000000" d="m128.40683 363.18384l0 0c0 -3.4007263 2.7568512 -6.157593 6.157593 -6.157593l24.629684 0l0 0c1.6330872 0 3.1993103 0.6487427 4.35408 1.8035278c1.1547699 1.1547546 1.8035126 2.7209778 1.8035126 4.354065l0 24.6297c0 3.4007263 -2.7568512 6.157593 -6.157593 6.157593l-24.629684 0c-3.4007416 0 -6.157593 -2.7568665 -6.157593 -6.157593z" fill-rule="evenodd"/><path stroke="#000000" stroke-width="4.0" stroke-linejoin="round" stroke-linecap="butt" d="m128.40683 363.18384l0 0c0 -3.4007263 2.7568512 -6.157593 6.157593 -6.157593l24.629684 0l0 0c1.6330872 0 3.1993103 0.6487427 4.35408 1.8035278c1.1547699 1.1547546 1.8035126 2.7209778 1.8035126 4.354065l0 24.6297c0 3.4007263 -2.7568512 6.157593 -6.157593 6.157593l-24.629684 0c-3.4007416 0 -6.157593 -2.7568665 -6.157593 -6.157593z" fill-rule="evenodd"/><path fill="#000000" d="m412.21783 363.18384l0 0c0 -3.4007263 2.7568665 -6.157593 6.1576233 -6.157593l24.62967 0l0 0c1.6330872 0 3.1993103 0.6487427 4.3540955 1.8035278c1.1547546 1.1547546 1.8034973 2.7209778 1.8034973 4.354065l0 24.6297c0 3.4007263 -2.756836 6.157593 -6.157593 6.157593l-24.62967 0c-3.4007568 0 -6.1576233 -2.7568665 -6.1576233 -6.157593z" fill-rule="evenodd"/><path stroke="#000000" stroke-width="4.0" stroke-linejoin="round" stroke-linecap="butt" d="m412.21783 363.18384l0 0c0 -3.4007263 2.7568665 -6.157593 6.1576233 -6.157593l24.62967 0l0 0c1.6330872 0 3.1993103 0.6487427 4.3540955 1.8035278c1.1547546 1.1547546 1.8034973 2.7209778 1.8034973 4.354065l0 24.6297c0 3.4007263 -2.756836 6.157593 -6.157593 6.157593l-24.62967 0c-3.4007568 0 -6.1576233 -2.7568665 -6.1576233 -6.157593z" fill-rule="evenodd"/><path fill="#000000" d="m477.54593 363.18384l0 0c0 -3.4007263 2.7568665 -6.157593 6.157593 -6.157593l24.6297 0l0 0c1.6330872 0 3.1993103 0.6487427 4.3540955 1.8035278c1.1547241 1.1547546 1.8034668 2.7209778 1.8034668 4.354065l0 24.6297c0 3.4007263 -2.756836 6.157593 -6.1575623 6.157593l-24.6297 0c-3.4007263 0 -6.157593 -2.7568665 -6.157593 -6.157593z" fill-rule="evenodd"/><path stroke="#000000" stroke-width="4.0" stroke-linejoin="round" stroke-linecap="butt" d="m477.54593 363.18384l0 0c0 -3.4007263 2.7568665 -6.157593 6.157593 -6.157593l24.6297 0l0 0c1.6330872 0 3.1993103 0.6487427 4.3540955 1.8035278c1.1547241 1.1547546 1.8034668 2.7209778 1.8034668 4.354065l0 24.6297c0 3.4007263 -2.756836 6.157593 -6.1575623 6.157593l-24.6297 0c-3.4007263 0 -6.157593 -2.7568665 -6.157593 -6.157593z" fill-rule="evenodd"/></g></svg>