<svg version="1.1" viewBox="0.0 0.0 288.0 288.0" fill="none" stroke="none" stroke-linecap="square" stroke-miterlimit="10" xmlns:xlink="http://www.w3.org/1999/xlink" xmlns="http://www.w3.org/2000/svg"><clipPath id="p.0"><path d="m0 0l288.0 0l0 288.0l-288.0 0l0 -288.0z" clip-rule="nonzero"/></clipPath><g clip-path="url(#p.0)"><path fill="#000000" fill-opacity="0.0" d="m0 0l288.0 0l0 288.0l-288.0 0z" fill-rule="evenodd"/><path fill="#000000" fill-opacity="0.0" d="m26.908464 122.720474l0 0c0 -53.636856 43.481262 -97.11811 97.11811 -97.11811l0 0c25.757332 0 50.459694 10.232058 68.672874 28.445238c18.21318 18.21318 28.445236 42.91555 28.445236 68.672874l0 0c0 53.636856 -43.481262 97.1181 -97.11811 97.1181l0 0c-53.63685 0 -97.11811 -43.481247 -97.11811 -97.1181z" fill-rule="evenodd"/><path stroke="#f3f3f3" stroke-width="24.0" stroke-linejoin="round" stroke-linecap="butt" d="m26.908464 122.720474l0 0c0 -53.636856 43.481262 -97.11811 97.11811 -97.11811l0 0c25.757332 0 50.459694 10.232058 68.672874 28.445238c18.21318 18.21318 28.445236 42.91555 28.445236 68.672874l0 0c0 53.636856 -43.481262 97.1181 -97.11811 97.1181l0 0c-53.63685 0 -97.11811 -43.481247 -97.11811 -97.1181z" fill-rule="evenodd"/><path fill="#f3f3f3" d="m191.9097 197.35278l0 0c-3.8798828 -4.200058 -3.6197052 -10.749451 0.581131 -14.628494l0 0l0 0c2.0173187 -1.8627777 4.692169 -2.8480377 7.436096 -2.739029c2.743927 0.10899353 5.332184 1.3033447 7.1953735 3.320282l66.48509 71.97136c3.8799133 4.200058 3.6197205 10.749435 -0.5811157 14.628494l0 0l0 0c-4.200836 3.8790283 -10.751587 3.618805 -14.63147 -0.5812683z" fill-rule="evenodd"/><path stroke="#f3f3f3" stroke-width="1.0" stroke-linejoin="round" stroke-linecap="butt" d="m191.9097 197.35278l0 0c-3.8798828 -4.200058 -3.6197052 -10.749451 0.581131 -14.628494l0 0l0 0c2.0173187 -1.8627777 4.692169 -2.8480377 7.436096 -2.739029c2.743927 0.10899353 5.332184 1.3033447 7.1953735 3.320282l66.48509 71.97136c3.8799133 4.200058 3.6197205 10.749435 -0.5811157 14.628494l0 0l0 0c-4.200836 3.8790283 -10.751587 3.618805 -14.63147 -0.5812683z" fill-rule="evenodd"/></g></svg>